<svg id="svg" version="1.1" xmlns="http://www.w3.org/2000/svg" xmlns:xlink="http://www.w3.org/1999/xlink" width="400" height="400" viewBox="0, 0, 400,400"><g id="svgg"><path id="path0" d="M0.000 200.000 L 0.000 400.000 200.000 400.000 L 400.000 400.000 400.000 200.000 L 400.000 0.000 200.000 0.000 L 0.000 0.000 0.000 200.000 M232.693 90.978 C 234.842 91.736,238.310 93.001,240.400 93.790 C 245.445 95.694,251.100 97.574,257.200 99.377 C 259.950 100.190,263.280 101.196,264.600 101.613 C 265.920 102.030,268.530 102.749,270.400 103.212 C 286.165 107.109,286.552 107.181,299.600 108.608 C 317.926 110.611,318.116 110.811,317.267 127.200 C 317.049 131.409,317.029 135.807,317.221 137.400 C 317.407 138.940,317.568 140.409,317.579 140.664 C 317.591 140.919,318.635 142.377,319.900 143.904 C 321.165 145.431,322.740 147.362,323.400 148.196 C 324.060 149.030,324.909 150.041,325.286 150.443 C 326.434 151.663,333.320 159.775,334.600 161.413 C 336.454 163.786,338.269 165.819,342.429 170.183 C 347.941 175.965,358.489 187.247,362.083 191.205 C 363.778 193.072,365.829 195.320,366.639 196.200 C 369.395 199.192,372.300 203.388,375.225 208.600 C 376.829 211.460,379.182 215.646,380.452 217.903 C 383.522 223.355,386.710 230.093,388.733 235.400 C 392.026 244.041,389.010 257.350,381.075 269.196 C 379.824 271.064,378.800 272.983,378.800 273.461 C 378.800 275.485,376.079 276.788,373.914 275.801 C 372.588 275.197,360.405 273.644,348.600 272.574 C 343.458 272.108,314.763 271.042,310.832 271.171 C 309.052 271.229,308.097 270.205,307.606 267.711 C 300.466 231.434,263.462 221.459,246.515 251.243 C 245.130 253.678,243.200 259.370,243.198 261.029 C 243.191 265.706,240.203 268.600,237.389 266.655 C 234.453 264.625,226.415 262.872,210.400 260.768 C 205.450 260.118,200.320 259.414,199.000 259.205 C 194.504 258.491,175.420 256.852,168.800 256.612 C 165.170 256.480,156.103 256.197,148.651 255.983 C 131.725 255.498,131.749 255.504,130.104 250.600 C 129.661 249.280,128.642 246.670,127.839 244.800 C 127.036 242.930,126.042 240.320,125.632 239.000 C 120.657 223.021,112.856 214.405,102.234 213.160 C 91.329 211.882,83.878 215.263,78.341 224.000 C 77.574 225.210,76.495 226.920,75.942 227.800 C 74.029 230.845,72.731 234.217,71.965 238.123 C 70.471 245.751,70.704 245.638,58.960 244.396 C 50.671 243.519,49.609 243.485,45.481 243.970 C 36.882 244.979,36.978 244.978,36.046 244.046 C 34.985 242.985,34.977 241.805,36.016 239.456 C 38.207 234.505,37.232 224.569,32.442 203.000 C 29.165 188.246,28.757 185.937,28.201 179.000 C 27.380 168.757,27.538 169.309,24.209 165.051 C 18.917 158.280,18.892 156.796,24.018 153.388 C 25.572 152.355,26.788 151.459,26.722 151.397 C 26.655 151.335,25.430 150.796,24.000 150.199 C 22.570 149.603,20.050 148.481,18.400 147.706 C 16.750 146.932,13.733 145.520,11.696 144.570 C 7.634 142.676,6.954 141.890,8.378 140.738 C 9.658 139.701,14.160 140.194,25.400 142.603 C 26.940 142.933,30.630 143.728,33.600 144.370 C 46.798 147.224,55.099 147.754,74.776 146.999 C 80.028 146.797,83.404 146.846,85.176 147.150 C 90.114 147.995,101.399 149.569,114.000 151.168 C 120.930 152.048,128.670 153.038,131.200 153.367 C 136.321 154.034,143.149 155.308,146.200 156.166 C 149.271 157.030,160.357 159.129,166.600 160.029 C 169.680 160.473,174.000 161.113,176.200 161.450 C 179.143 161.901,184.270 162.093,195.600 162.178 C 211.496 162.297,211.943 162.327,217.548 163.648 C 219.389 164.083,221.009 164.324,221.148 164.184 C 221.286 164.045,221.357 156.701,221.305 147.865 C 221.186 127.815,221.778 105.284,222.584 99.200 C 223.927 89.063,224.936 88.242,232.693 90.978 M230.652 101.670 C 229.804 110.145,229.497 118.734,229.313 139.076 C 229.074 165.406,229.083 165.542,230.917 166.400 C 235.744 168.657,231.246 175.288,225.303 174.675 C 224.124 174.553,222.407 174.017,221.481 173.482 C 216.031 170.331,210.637 169.583,193.800 169.642 C 186.540 169.667,179.250 169.502,177.600 169.274 C 161.388 167.039,152.499 165.499,147.200 164.006 C 145.770 163.603,142.080 162.803,139.000 162.229 C 133.726 161.246,129.737 160.724,112.800 158.804 C 108.950 158.367,103.550 157.651,100.800 157.213 C 95.247 156.328,85.204 154.975,81.200 154.572 L 78.600 154.310 79.568 155.354 C 80.948 156.841,80.702 156.894,74.542 156.447 C 71.494 156.226,66.120 155.935,62.600 155.801 C 59.080 155.666,54.670 155.388,52.800 155.182 C 42.202 154.016,38.340 153.953,37.030 154.923 C 36.354 155.424,34.450 156.626,32.800 157.594 C 31.150 158.562,29.743 159.391,29.673 159.437 C 28.917 159.934,33.525 164.803,34.773 164.825 C 35.558 164.839,39.260 164.838,43.000 164.822 C 46.740 164.807,56.910 165.028,65.600 165.315 C 74.290 165.601,83.698 165.767,86.507 165.685 C 91.196 165.547,102.350 166.312,108.800 167.215 C 118.136 168.521,123.172 169.005,144.200 170.620 C 154.818 171.436,157.846 171.885,177.600 175.577 C 181.230 176.255,186.962 177.249,190.338 177.785 C 193.714 178.321,197.404 178.942,198.538 179.165 C 199.672 179.388,202.760 179.851,205.400 180.194 C 208.040 180.536,211.100 181.001,212.200 181.226 C 213.300 181.451,216.628 181.992,219.596 182.428 C 226.019 183.373,228.155 184.246,228.797 186.190 C 230.042 189.963,225.088 193.881,222.311 191.320 C 221.486 190.559,219.912 190.101,213.600 188.782 C 211.877 188.422,206.763 187.676,194.600 186.008 C 191.520 185.585,187.470 184.957,185.600 184.612 C 183.730 184.267,180.130 183.631,177.600 183.198 C 171.099 182.086,163.298 180.570,161.314 180.033 C 158.655 179.313,138.990 177.202,134.931 177.201 C 130.518 177.200,116.997 176.155,114.200 175.599 C 102.692 173.311,37.988 171.478,36.080 173.386 C 35.056 174.411,37.610 195.259,39.203 198.877 C 39.956 200.589,42.170 211.033,44.062 221.800 C 44.294 223.120,44.599 226.885,44.742 230.166 L 45.000 236.132 46.000 236.198 C 62.442 237.290,63.255 237.316,63.777 236.759 C 64.066 236.452,65.103 234.204,66.083 231.765 C 74.690 210.335,88.961 201.651,107.533 206.542 C 118.550 209.444,126.544 218.732,132.542 235.600 C 134.704 241.681,136.832 246.406,137.750 247.162 C 138.892 248.104,142.028 248.381,156.400 248.808 C 170.233 249.219,180.594 249.854,191.800 250.978 C 205.732 252.375,213.523 253.243,215.400 253.608 C 216.500 253.822,219.897 254.451,222.949 255.005 C 226.001 255.560,228.675 256.122,228.890 256.256 C 229.106 256.389,230.569 256.823,232.142 257.219 C 235.625 258.097,235.671 258.064,237.576 253.400 C 245.974 232.841,263.075 222.872,282.194 227.389 C 296.081 230.671,309.664 244.750,313.438 259.776 C 314.534 264.137,313.202 263.763,328.668 264.062 C 341.135 264.303,346.362 264.672,350.628 265.612 C 351.523 265.810,356.113 266.253,360.828 266.598 C 365.542 266.944,370.120 267.397,371.000 267.605 C 372.816 268.036,373.189 267.735,375.817 263.706 C 384.095 251.014,384.621 239.189,377.404 227.981 C 373.964 222.638,373.681 222.153,370.974 216.946 C 364.230 203.976,363.623 203.211,345.626 185.000 C 335.186 174.436,331.239 170.086,326.582 164.016 C 325.492 162.595,324.330 161.082,324.000 160.653 C 322.007 158.064,313.175 147.971,311.878 146.800 C 309.758 144.887,309.603 143.866,309.379 130.400 L 309.190 119.000 308.036 118.516 C 307.402 118.249,304.389 117.654,301.341 117.193 C 298.294 116.732,292.920 115.920,289.400 115.388 C 279.469 113.887,268.029 111.094,252.000 106.259 C 250.130 105.695,246.980 104.770,245.000 104.204 C 243.020 103.638,241.040 103.017,240.600 102.823 C 240.160 102.629,238.090 101.932,236.000 101.272 C 233.910 100.613,231.900 99.954,231.533 99.807 C 230.973 99.583,230.831 99.883,230.652 101.670 M107.483 224.402 C 116.093 227.805,119.313 234.078,121.068 250.869 C 121.963 259.431,116.056 271.210,109.000 274.933 C 106.691 276.152,106.417 276.200,101.800 276.200 L 97.000 276.200 93.497 274.487 C 86.546 271.089,81.287 264.022,79.989 256.339 C 76.127 233.468,89.910 217.458,107.483 224.402 M98.448 230.079 C 80.139 232.884,83.016 268.042,101.642 269.120 C 106.726 269.414,109.910 267.232,112.551 261.642 L 113.800 259.000 113.775 252.000 C 113.741 242.376,112.339 237.419,108.421 233.066 C 106.503 230.935,101.886 229.552,98.448 230.079 M283.400 245.532 C 308.399 257.527,298.720 300.819,271.906 296.941 C 255.689 294.595,246.936 274.676,254.408 257.118 C 259.448 245.274,272.222 240.168,283.400 245.532 M269.498 251.366 C 260.348 253.827,255.998 266.407,260.230 278.166 C 267.084 297.208,290.800 292.034,290.800 271.497 C 290.800 256.996,281.442 248.152,269.498 251.366 " stroke="none" fill="#fbfbfb" fill-rule="evenodd"></path><path id="path1" d="M225.527 90.417 C 222.721 92.054,221.448 111.704,221.701 149.465 C 221.812 166.076,221.974 165.146,219.109 164.272 C 214.997 163.017,210.384 162.690,197.200 162.716 C 185.517 162.739,183.430 162.640,176.600 161.738 C 167.354 160.517,152.932 158.155,150.200 157.414 C 142.658 155.368,129.172 153.157,117.200 152.006 C 114.670 151.762,111.520 151.401,110.200 151.203 C 108.880 151.005,105.280 150.469,102.200 150.013 C 99.120 149.556,94.350 148.797,91.600 148.326 C 86.283 147.415,79.372 147.246,61.000 147.577 C 50.869 147.760,42.607 146.780,29.400 143.828 C 12.439 140.038,6.594 139.590,8.200 142.204 C 8.600 142.855,22.456 149.442,25.424 150.392 C 27.870 151.175,27.826 151.344,24.644 153.359 C 18.830 157.041,18.879 157.776,25.498 166.126 C 27.521 168.678,28.121 171.395,28.787 181.007 C 29.015 184.303,29.488 188.260,29.838 189.800 C 37.634 224.102,38.698 232.138,36.391 239.311 C 34.754 244.399,35.405 244.799,43.659 243.779 C 49.745 243.026,54.606 243.224,63.700 244.593 C 69.408 245.453,70.400 244.841,71.171 239.990 C 73.561 224.967,85.320 212.400,96.985 212.400 C 111.423 212.400,118.992 219.297,125.822 238.674 C 126.816 241.493,127.878 244.340,128.182 245.000 C 128.487 245.660,129.303 247.640,129.996 249.400 C 132.354 255.386,131.272 255.026,148.600 255.577 C 155.860 255.808,164.860 256.175,168.600 256.393 C 172.340 256.612,178.656 256.982,182.636 257.217 C 186.616 257.451,191.026 257.822,192.436 258.041 C 193.846 258.259,198.330 258.865,202.400 259.386 C 206.470 259.907,211.690 260.606,214.000 260.938 C 216.310 261.271,219.795 261.745,221.744 261.993 C 226.001 262.533,231.868 264.051,235.832 265.638 C 241.000 267.708,242.394 266.805,242.965 261.018 C 244.067 249.836,254.587 237.550,265.600 234.581 C 284.157 229.578,301.460 242.208,307.250 264.980 C 308.886 271.413,306.738 270.717,326.272 271.146 C 335.549 271.349,343.300 271.615,343.496 271.736 C 343.692 271.857,348.213 272.337,353.541 272.803 C 358.870 273.269,365.788 274.104,368.915 274.659 C 376.835 276.064,378.400 275.868,378.400 273.467 C 378.400 273.023,379.179 271.475,380.130 270.029 C 384.439 263.481,385.965 260.582,387.622 255.800 C 389.991 248.960,390.253 239.151,388.187 234.600 C 387.887 233.940,386.497 230.876,385.097 227.792 C 383.697 224.707,381.681 220.657,380.617 218.792 C 379.553 216.926,377.196 212.751,375.379 209.514 C 370.166 200.228,368.356 198.067,345.997 174.427 C 341.925 170.122,335.895 163.395,332.597 159.479 C 329.298 155.562,324.741 150.162,322.470 147.479 C 316.330 140.226,316.163 139.612,316.852 126.915 C 317.262 119.353,316.904 114.092,315.895 112.870 C 314.406 111.065,307.570 109.458,298.600 108.804 C 290.098 108.184,277.935 105.778,266.600 102.475 C 265.060 102.026,261.820 101.086,259.400 100.385 C 254.305 98.910,241.920 94.720,236.400 92.604 C 229.796 90.073,227.061 89.522,225.527 90.417 M237.336 101.391 C 241.704 102.832,243.208 103.288,259.600 108.144 C 268.278 110.715,279.086 113.412,283.000 113.983 C 284.760 114.240,288.090 114.792,290.400 115.211 C 292.710 115.629,296.375 116.172,298.543 116.418 C 300.712 116.663,304.042 117.255,305.943 117.732 L 309.400 118.600 309.658 129.800 C 309.979 143.740,310.108 144.534,312.440 146.840 C 314.728 149.104,321.460 156.967,324.786 161.261 C 331.013 169.301,336.078 174.943,346.995 186.000 C 358.545 197.698,361.713 201.139,364.485 205.000 C 365.829 206.872,372.400 218.528,372.400 219.041 C 372.400 219.170,373.689 221.373,375.264 223.938 C 380.699 232.785,381.179 233.749,381.998 237.452 C 384.384 248.244,377.648 267.849,371.579 267.780 C 368.428 267.743,358.236 266.823,351.931 266.006 C 342.152 264.738,335.239 264.265,325.600 264.203 C 314.619 264.132,314.174 264.052,313.806 262.089 C 313.387 259.856,312.490 257.394,310.495 253.000 C 299.265 228.267,274.218 219.571,253.200 233.107 C 247.502 236.776,241.421 244.473,238.749 251.397 C 237.224 255.349,235.697 258.400,235.245 258.400 C 235.058 258.400,233.765 258.036,232.374 257.592 C 230.982 257.147,228.045 256.417,225.846 255.969 C 223.648 255.521,221.748 255.092,221.625 255.015 C 221.501 254.939,219.330 254.583,216.800 254.225 C 214.270 253.866,210.580 253.318,208.600 253.006 C 206.620 252.694,202.300 252.243,199.000 252.002 C 193.129 251.575,189.028 251.156,183.400 250.410 C 181.860 250.205,173.850 249.843,165.600 249.604 C 139.824 248.857,138.167 248.630,136.402 245.600 C 135.409 243.896,132.000 235.605,132.000 234.893 C 132.000 234.710,131.111 232.534,130.025 230.057 C 123.746 215.739,116.488 208.567,106.274 206.586 C 86.326 202.718,73.857 211.399,65.035 235.301 C 64.178 237.623,63.592 237.823,58.852 237.410 C 56.954 237.245,52.970 236.905,50.000 236.655 L 44.600 236.200 44.329 230.200 C 43.927 221.302,40.776 203.909,38.025 195.400 C 36.890 191.891,35.082 175.212,35.665 173.635 C 35.944 172.881,39.169 172.443,45.200 172.340 C 49.628 172.265,97.168 173.227,98.600 173.421 C 111.309 175.144,127.413 176.702,137.400 177.175 C 148.298 177.691,165.860 179.925,167.632 181.020 C 168.452 181.527,187.752 184.709,201.400 186.587 C 214.136 188.340,221.471 189.880,222.397 190.996 C 224.727 193.803,229.819 189.269,228.191 185.837 C 227.437 184.250,227.116 184.122,221.000 182.987 C 217.597 182.355,214.395 181.855,198.200 179.430 C 194.460 178.870,190.590 178.231,189.600 178.011 C 188.610 177.792,186.000 177.334,183.800 176.995 C 181.600 176.656,177.550 175.946,174.800 175.416 C 164.440 173.422,158.476 172.414,154.600 172.004 C 152.400 171.771,149.430 171.407,148.000 171.196 C 146.570 170.985,140.720 170.528,135.000 170.181 C 129.280 169.834,123.340 169.384,121.800 169.181 C 120.260 168.978,115.130 168.365,110.400 167.819 C 105.670 167.273,100.454 166.635,98.810 166.402 C 97.165 166.168,88.435 165.895,79.410 165.795 C 70.384 165.695,56.786 165.520,49.192 165.406 C 41.598 165.293,34.915 165.200,34.341 165.200 C 33.511 165.200,32.881 164.628,31.249 162.392 C 28.775 159.001,28.745 159.533,31.500 157.982 C 32.765 157.269,34.831 155.988,36.092 155.134 C 37.671 154.064,38.667 153.645,39.292 153.786 C 40.639 154.091,50.326 154.749,63.200 155.409 C 69.470 155.730,75.747 156.182,77.150 156.413 C 80.057 156.892,80.618 156.670,79.200 155.600 C 78.657 155.190,78.350 154.717,78.519 154.548 C 78.944 154.123,89.229 155.018,94.800 155.964 C 97.330 156.394,101.830 157.038,104.800 157.396 C 107.770 157.753,111.190 158.210,112.400 158.410 C 113.610 158.611,117.390 159.056,120.800 159.399 C 131.786 160.505,139.142 161.725,148.400 163.978 C 152.030 164.862,157.520 165.950,160.600 166.396 C 163.680 166.843,166.424 167.290,166.697 167.390 C 169.877 168.557,185.852 169.550,197.600 169.312 C 209.189 169.077,214.748 169.885,220.574 172.652 C 222.280 173.462,224.527 174.206,225.567 174.306 C 230.985 174.827,234.834 169.222,230.863 166.594 L 229.327 165.578 229.047 146.465 C 228.892 135.954,228.855 127.094,228.964 126.777 C 229.072 126.459,229.354 120.890,229.589 114.400 C 229.823 107.910,230.121 101.908,230.249 101.063 C 230.529 99.219,230.792 99.232,237.336 101.391 " stroke="none" fill="#df3028" fill-rule="evenodd"></path><path id="path2" d="M96.160 223.189 C 85.684 225.419,79.805 234.570,79.834 248.600 C 79.859 260.869,83.727 268.771,92.014 273.487 C 110.241 283.859,125.494 264.558,119.031 239.300 C 116.116 227.911,106.337 221.022,96.160 223.189 M105.817 230.991 C 115.228 235.595,117.538 259.182,109.330 266.856 C 101.841 273.857,89.229 266.965,86.569 254.419 C 83.143 238.259,93.903 225.162,105.817 230.991 M268.407 244.645 C 250.902 249.818,245.880 277.020,259.922 290.604 C 275.191 305.374,297.280 293.457,297.373 270.400 C 297.447 252.218,283.810 240.094,268.407 244.645 M280.830 251.944 C 294.444 258.403,294.655 283.512,281.139 288.895 C 269.133 293.677,258.374 284.103,258.406 268.665 C 258.434 254.952,269.607 246.620,280.830 251.944 " stroke="none" fill="#282827" fill-rule="evenodd"></path><path id="path3" d="M222.109 104.000 C 222.109 104.990,222.187 105.395,222.282 104.900 C 222.378 104.405,222.378 103.595,222.282 103.100 C 222.187 102.605,222.109 103.010,222.109 104.000 M230.137 105.400 C 230.139 107.160,230.209 107.830,230.293 106.889 C 230.378 105.949,230.377 104.509,230.291 103.689 C 230.205 102.870,230.136 103.640,230.137 105.400 M256.200 107.600 C 256.640 107.789,257.270 107.944,257.600 107.944 C 257.978 107.944,257.904 107.817,257.400 107.600 C 256.960 107.411,256.330 107.256,256.000 107.256 C 255.622 107.256,255.696 107.383,256.200 107.600 M221.768 115.800 C 221.768 120.200,221.826 122.055,221.898 119.921 C 221.970 117.788,221.970 114.188,221.899 111.921 C 221.827 109.655,221.768 111.400,221.768 115.800 M293.500 108.282 C 293.995 108.378,294.805 108.378,295.300 108.282 C 295.795 108.187,295.390 108.109,294.400 108.109 C 293.410 108.109,293.005 108.187,293.500 108.282 M297.505 108.683 C 298.002 108.779,298.722 108.775,299.105 108.675 C 299.487 108.575,299.080 108.496,298.200 108.501 C 297.320 108.505,297.007 108.587,297.505 108.683 M229.701 112.200 C 229.705 113.080,229.787 113.393,229.883 112.895 C 229.979 112.398,229.975 111.678,229.875 111.295 C 229.775 110.913,229.696 111.320,229.701 112.200 M272.400 111.949 C 272.730 112.146,273.630 112.420,274.400 112.556 C 275.344 112.723,275.540 112.692,275.000 112.461 C 273.763 111.932,271.690 111.523,272.400 111.949 M284.500 114.676 C 284.885 114.776,285.515 114.776,285.900 114.676 C 286.285 114.575,285.970 114.493,285.200 114.493 C 284.430 114.493,284.115 114.575,284.500 114.676 M297.505 116.683 C 298.002 116.779,298.722 116.775,299.105 116.675 C 299.487 116.575,299.080 116.496,298.200 116.501 C 297.320 116.505,297.007 116.587,297.505 116.683 M317.337 121.000 C 317.339 122.760,317.409 123.430,317.493 122.489 C 317.578 121.549,317.577 120.109,317.491 119.289 C 317.405 118.470,317.336 119.240,317.337 121.000 M309.328 122.800 C 309.328 124.230,309.401 124.815,309.489 124.100 C 309.578 123.385,309.578 122.215,309.489 121.500 C 309.401 120.785,309.328 121.370,309.328 122.800 M221.309 126.800 C 221.309 127.790,221.387 128.195,221.482 127.700 C 221.578 127.205,221.578 126.395,221.482 125.900 C 221.387 125.405,221.309 125.810,221.309 126.800 M316.914 130.200 C 316.917 131.300,316.995 131.703,317.087 131.095 C 317.179 130.486,317.177 129.586,317.082 129.095 C 316.987 128.603,316.911 129.100,316.914 130.200 M309.309 134.800 C 309.309 135.790,309.387 136.195,309.482 135.700 C 309.578 135.205,309.578 134.395,309.482 133.900 C 309.387 133.405,309.309 133.810,309.309 134.800 M228.893 136.800 C 228.893 137.570,228.975 137.885,229.076 137.500 C 229.176 137.115,229.176 136.485,229.076 136.100 C 228.975 135.715,228.893 136.030,228.893 136.800 M9.900 140.282 C 10.395 140.378,11.205 140.378,11.700 140.282 C 12.195 140.187,11.790 140.109,10.800 140.109 C 9.810 140.109,9.405 140.187,9.900 140.282 M221.324 143.400 C 221.326 144.720,221.401 145.212,221.490 144.493 C 221.579 143.774,221.577 142.694,221.486 142.093 C 221.395 141.492,221.322 142.080,221.324 143.400 M310.400 145.325 C 310.400 145.394,310.985 145.979,311.700 146.625 L 313.000 147.800 311.825 146.500 C 310.730 145.288,310.400 145.016,310.400 145.325 M48.700 147.082 C 49.195 147.178,50.005 147.178,50.500 147.082 C 50.995 146.987,50.590 146.909,49.600 146.909 C 48.610 146.909,48.205 146.987,48.700 147.082 M71.300 147.094 C 72.345 147.176,74.055 147.176,75.100 147.094 C 76.145 147.012,75.290 146.944,73.200 146.944 C 71.110 146.944,70.255 147.012,71.300 147.094 M80.291 147.089 C 81.001 147.177,82.261 147.179,83.091 147.092 C 83.921 147.005,83.340 146.933,81.800 146.931 C 80.260 146.929,79.581 147.000,80.291 147.089 M221.760 153.000 C 221.761 156.300,221.822 157.597,221.898 155.882 C 221.973 154.167,221.972 151.467,221.897 149.882 C 221.821 148.297,221.759 149.700,221.760 153.000 M58.100 147.887 C 58.705 147.978,59.695 147.978,60.300 147.887 C 60.905 147.795,60.410 147.720,59.200 147.720 C 57.990 147.720,57.495 147.795,58.100 147.887 M113.300 151.476 C 113.685 151.576,114.315 151.576,114.700 151.476 C 115.085 151.375,114.770 151.293,114.000 151.293 C 113.230 151.293,112.915 151.375,113.300 151.476 M116.100 151.876 C 116.485 151.976,117.115 151.976,117.500 151.876 C 117.885 151.775,117.570 151.693,116.800 151.693 C 116.030 151.693,115.715 151.775,116.100 151.876 M133.300 153.876 C 133.685 153.976,134.315 153.976,134.700 153.876 C 135.085 153.775,134.770 153.693,134.000 153.693 C 133.230 153.693,132.915 153.775,133.300 153.876 M51.905 155.083 C 52.402 155.179,53.122 155.175,53.505 155.075 C 53.887 154.975,53.480 154.896,52.600 154.901 C 51.720 154.905,51.407 154.987,51.905 155.083 M56.100 155.491 C 56.925 155.578,58.275 155.578,59.100 155.491 C 59.925 155.405,59.250 155.334,57.600 155.334 C 55.950 155.334,55.275 155.405,56.100 155.491 M88.500 155.476 C 88.885 155.576,89.515 155.576,89.900 155.476 C 90.285 155.375,89.970 155.293,89.200 155.293 C 88.430 155.293,88.115 155.375,88.500 155.476 M62.900 155.887 C 63.505 155.978,64.495 155.978,65.100 155.887 C 65.705 155.795,65.210 155.720,64.000 155.720 C 62.790 155.720,62.295 155.795,62.900 155.887 M72.100 156.276 C 72.485 156.376,73.115 156.376,73.500 156.276 C 73.885 156.175,73.570 156.093,72.800 156.093 C 72.030 156.093,71.715 156.175,72.100 156.276 M104.900 157.876 C 105.285 157.976,105.915 157.976,106.300 157.876 C 106.685 157.775,106.370 157.693,105.600 157.693 C 104.830 157.693,104.515 157.775,104.900 157.876 M121.500 159.882 C 121.995 159.978,122.805 159.978,123.300 159.882 C 123.795 159.787,123.390 159.709,122.400 159.709 C 121.410 159.709,121.005 159.787,121.500 159.882 M124.900 160.276 C 125.285 160.376,125.915 160.376,126.300 160.276 C 126.685 160.175,126.370 160.093,125.600 160.093 C 124.830 160.093,124.515 160.175,124.900 160.276 M221.194 162.282 C 221.087 163.646,221.145 164.617,221.323 164.439 C 221.500 164.260,221.588 163.144,221.517 161.957 L 221.389 159.800 221.194 162.282 M169.300 160.676 C 169.685 160.776,170.315 160.776,170.700 160.676 C 171.085 160.575,170.770 160.493,170.000 160.493 C 169.230 160.493,168.915 160.575,169.300 160.676 M194.918 162.298 C 196.633 162.373,199.333 162.372,200.918 162.297 C 202.503 162.221,201.100 162.159,197.800 162.160 C 194.500 162.161,193.203 162.222,194.918 162.298 M186.305 162.683 C 186.802 162.779,187.522 162.775,187.905 162.675 C 188.287 162.575,187.880 162.496,187.000 162.501 C 186.120 162.505,185.807 162.587,186.305 162.683 M209.300 162.687 C 209.905 162.778,210.895 162.778,211.500 162.687 C 212.105 162.595,211.610 162.520,210.400 162.520 C 209.190 162.520,208.695 162.595,209.300 162.687 M148.600 164.400 C 149.040 164.589,149.670 164.744,150.000 164.744 C 150.378 164.744,150.304 164.617,149.800 164.400 C 149.360 164.211,148.730 164.056,148.400 164.056 C 148.022 164.056,148.096 164.183,148.600 164.400 M33.160 164.920 C 33.346 165.106,34.106 165.196,34.849 165.119 C 36.167 164.983,36.158 164.975,34.510 164.780 C 33.581 164.671,32.973 164.733,33.160 164.920 M40.878 165.098 C 43.231 165.169,47.191 165.169,49.678 165.099 C 52.165 165.029,50.240 164.971,45.400 164.970 C 40.560 164.970,38.525 165.028,40.878 165.098 M58.082 165.496 C 59.558 165.573,62.078 165.573,63.682 165.497 C 65.287 165.421,64.080 165.358,61.000 165.358 C 57.920 165.357,56.607 165.419,58.082 165.496 M75.705 165.887 C 76.314 165.979,77.214 165.977,77.705 165.882 C 78.197 165.787,77.700 165.711,76.600 165.714 C 75.500 165.717,75.097 165.795,75.705 165.887 M108.705 167.483 C 109.202 167.579,109.922 167.575,110.305 167.475 C 110.687 167.375,110.280 167.296,109.400 167.301 C 108.520 167.305,108.207 167.387,108.705 167.483 M175.900 169.082 C 176.395 169.178,177.205 169.178,177.700 169.082 C 178.195 168.987,177.790 168.909,176.800 168.909 C 175.810 168.909,175.405 168.987,175.900 169.082 M126.300 169.482 C 126.795 169.578,127.605 169.578,128.100 169.482 C 128.595 169.387,128.190 169.309,127.200 169.309 C 126.210 169.309,125.805 169.387,126.300 169.482 M199.500 169.493 C 200.435 169.577,201.965 169.577,202.900 169.493 C 203.835 169.409,203.070 169.340,201.200 169.340 C 199.330 169.340,198.565 169.409,199.500 169.493 M343.800 172.000 C 345.328 173.540,346.669 174.800,346.779 174.800 C 346.889 174.800,345.728 173.540,344.200 172.000 C 342.672 170.460,341.331 169.200,341.221 169.200 C 341.111 169.200,342.272 170.460,343.800 172.000 M131.107 169.890 C 131.826 169.979,132.906 169.977,133.507 169.886 C 134.108 169.795,133.520 169.722,132.200 169.724 C 130.880 169.726,130.388 169.801,131.107 169.890 M187.500 169.893 C 188.435 169.977,189.965 169.977,190.900 169.893 C 191.835 169.809,191.070 169.740,189.200 169.740 C 187.330 169.740,186.565 169.809,187.500 169.893 M154.705 171.883 C 155.202 171.979,155.922 171.975,156.305 171.875 C 156.687 171.775,156.280 171.696,155.400 171.701 C 154.520 171.705,154.207 171.787,154.705 171.883 M73.700 173.091 C 74.525 173.178,75.875 173.178,76.700 173.091 C 77.525 173.005,76.850 172.934,75.200 172.934 C 73.550 172.934,72.875 173.005,73.700 173.091 M93.100 173.489 C 93.815 173.578,94.985 173.578,95.700 173.489 C 96.415 173.401,95.830 173.328,94.400 173.328 C 92.970 173.328,92.385 173.401,93.100 173.489 M97.905 173.883 C 98.402 173.979,99.122 173.975,99.505 173.875 C 99.887 173.775,99.480 173.696,98.600 173.701 C 97.720 173.705,97.407 173.787,97.905 173.883 M35.693 176.400 C 35.693 177.170,35.775 177.485,35.876 177.100 C 35.976 176.715,35.976 176.085,35.876 175.700 C 35.775 175.315,35.693 175.630,35.693 176.400 M115.905 175.883 C 116.402 175.979,117.122 175.975,117.505 175.875 C 117.887 175.775,117.480 175.696,116.600 175.701 C 115.720 175.705,115.407 175.787,115.905 175.883 M338.800 178.200 C 340.217 179.630,341.467 180.800,341.577 180.800 C 341.687 180.800,340.617 179.630,339.200 178.200 C 337.783 176.770,336.533 175.600,336.423 175.600 C 336.313 175.600,337.383 176.770,338.800 178.200 M28.101 177.800 C 28.105 178.680,28.187 178.993,28.283 178.495 C 28.379 177.998,28.375 177.278,28.275 176.895 C 28.175 176.513,28.096 176.920,28.101 177.800 M144.305 177.883 C 144.802 177.979,145.522 177.975,145.905 177.875 C 146.287 177.775,145.880 177.696,145.000 177.701 C 144.120 177.705,143.807 177.787,144.305 177.883 M147.900 178.282 C 148.395 178.378,149.205 178.378,149.700 178.282 C 150.195 178.187,149.790 178.109,148.800 178.109 C 147.810 178.109,147.405 178.187,147.900 178.282 M351.400 180.000 C 352.259 180.880,353.052 181.600,353.162 181.600 C 353.272 181.600,352.659 180.880,351.800 180.000 C 350.941 179.120,350.148 178.400,350.038 178.400 C 349.928 178.400,350.541 179.120,351.400 180.000 M28.509 183.200 C 28.509 184.190,28.587 184.595,28.682 184.100 C 28.778 183.605,28.778 182.795,28.682 182.300 C 28.587 181.805,28.509 182.210,28.509 183.200 M222.800 183.200 C 223.350 183.376,224.160 183.520,224.600 183.520 C 225.233 183.520,225.192 183.454,224.400 183.200 C 223.850 183.024,223.040 182.880,222.600 182.880 C 221.967 182.880,222.008 182.946,222.800 183.200 M356.400 185.400 C 357.595 186.610,358.663 187.600,358.773 187.600 C 358.883 187.600,357.995 186.610,356.800 185.400 C 355.605 184.190,354.537 183.200,354.427 183.200 C 354.317 183.200,355.205 184.190,356.400 185.400 M201.700 187.076 C 202.085 187.176,202.715 187.176,203.100 187.076 C 203.485 186.975,203.170 186.893,202.400 186.893 C 201.630 186.893,201.315 186.975,201.700 187.076 M353.200 192.600 C 353.946 193.370,354.647 194.000,354.757 194.000 C 354.867 194.000,354.346 193.370,353.600 192.600 C 352.854 191.830,352.153 191.200,352.043 191.200 C 351.933 191.200,352.454 191.830,353.200 192.600 M357.200 196.925 C 357.200 196.994,357.785 197.579,358.500 198.225 L 359.800 199.400 358.625 198.100 C 357.530 196.888,357.200 196.616,357.200 196.925 M96.105 212.687 C 96.714 212.779,97.614 212.777,98.105 212.682 C 98.597 212.587,98.100 212.511,97.000 212.514 C 95.900 212.517,95.497 212.595,96.105 212.687 M44.093 224.000 C 44.093 224.770,44.175 225.085,44.276 224.700 C 44.376 224.315,44.376 223.685,44.276 223.300 C 44.175 222.915,44.093 223.230,44.093 224.000 M271.317 226.697 C 272.811 226.774,275.151 226.774,276.517 226.696 C 277.882 226.618,276.660 226.555,273.800 226.555 C 270.940 226.556,269.822 226.620,271.317 226.697 M86.378 228.300 L 85.000 229.800 86.500 228.422 C 87.896 227.138,88.184 226.800,87.878 226.800 C 87.812 226.800,87.137 227.475,86.378 228.300 M265.000 234.800 C 264.496 235.017,264.422 235.144,264.800 235.144 C 265.130 235.144,265.760 234.989,266.200 234.800 C 266.704 234.583,266.778 234.456,266.400 234.456 C 266.070 234.456,265.440 234.611,265.000 234.800 M300.600 238.400 C 302.128 239.940,303.469 241.200,303.579 241.200 C 303.689 241.200,302.528 239.940,301.000 238.400 C 299.472 236.860,298.131 235.600,298.021 235.600 C 297.911 235.600,299.072 236.860,300.600 238.400 M35.449 240.615 C 35.312 240.973,35.221 241.746,35.246 242.333 C 35.280 243.132,35.370 242.998,35.604 241.800 C 35.935 240.100,35.862 239.540,35.449 240.615 M292.400 240.525 C 292.400 240.594,292.985 241.179,293.700 241.825 L 295.000 243.000 293.825 241.700 C 292.730 240.488,292.400 240.216,292.400 240.525 M252.400 242.600 C 251.428 243.590,250.723 244.400,250.833 244.400 C 250.943 244.400,251.828 243.590,252.800 242.600 C 253.772 241.610,254.477 240.800,254.367 240.800 C 254.257 240.800,253.372 241.610,252.400 242.600 M49.300 243.487 C 49.905 243.578,50.895 243.578,51.500 243.487 C 52.105 243.395,51.610 243.320,50.400 243.320 C 49.190 243.320,48.695 243.395,49.300 243.487 M44.500 243.876 C 44.885 243.976,45.515 243.976,45.900 243.876 C 46.285 243.775,45.970 243.693,45.200 243.693 C 44.430 243.693,44.115 243.775,44.500 243.876 M54.300 243.882 C 54.795 243.978,55.605 243.978,56.100 243.882 C 56.595 243.787,56.190 243.709,55.200 243.709 C 54.210 243.709,53.805 243.787,54.300 243.882 M57.905 244.283 C 58.402 244.379,59.122 244.375,59.505 244.275 C 59.887 244.175,59.480 244.096,58.600 244.101 C 57.720 244.105,57.407 244.187,57.905 244.283 M79.309 248.000 C 79.309 248.990,79.387 249.395,79.482 248.900 C 79.578 248.405,79.578 247.595,79.482 247.100 C 79.387 246.605,79.309 247.010,79.309 248.000 M145.305 248.687 C 145.914 248.779,146.814 248.777,147.305 248.682 C 147.797 248.587,147.300 248.511,146.200 248.514 C 145.100 248.517,144.697 248.595,145.305 248.687 M153.900 249.098 C 155.715 249.172,158.685 249.172,160.500 249.098 C 162.315 249.023,160.830 248.963,157.200 248.963 C 153.570 248.963,152.085 249.023,153.900 249.098 M167.312 249.495 C 168.364 249.577,169.984 249.576,170.912 249.492 C 171.840 249.408,170.980 249.341,169.000 249.342 C 167.020 249.343,166.260 249.412,167.312 249.495 M120.931 252.200 C 120.933 253.740,121.005 254.321,121.092 253.491 C 121.179 252.661,121.177 251.401,121.089 250.691 C 121.000 249.981,120.929 250.660,120.931 252.200 M272.700 250.689 C 273.415 250.778,274.585 250.778,275.300 250.689 C 276.015 250.601,275.430 250.528,274.000 250.528 C 272.570 250.528,271.985 250.601,272.700 250.689 M193.900 251.482 C 194.395 251.578,195.205 251.578,195.700 251.482 C 196.195 251.387,195.790 251.309,194.800 251.309 C 193.810 251.309,193.405 251.387,193.900 251.482 M380.844 253.244 C 380.598 253.951,380.466 254.600,380.552 254.685 C 380.638 254.771,380.909 254.262,381.156 253.556 C 381.402 252.849,381.534 252.200,381.448 252.115 C 381.362 252.029,381.091 252.538,380.844 253.244 M135.907 255.490 C 136.626 255.579,137.706 255.577,138.307 255.486 C 138.908 255.395,138.320 255.322,137.000 255.324 C 135.680 255.326,135.188 255.401,135.907 255.490 M142.512 255.895 C 143.564 255.977,145.184 255.976,146.112 255.892 C 147.040 255.808,146.180 255.741,144.200 255.742 C 142.220 255.743,141.460 255.812,142.512 255.895 M156.100 256.276 C 156.485 256.376,157.115 256.376,157.500 256.276 C 157.885 256.175,157.570 256.093,156.800 256.093 C 156.030 256.093,155.715 256.175,156.100 256.276 M177.700 257.076 C 178.085 257.176,178.715 257.176,179.100 257.076 C 179.485 256.975,179.170 256.893,178.400 256.893 C 177.630 256.893,177.315 256.975,177.700 257.076 M182.505 257.487 C 183.114 257.579,184.014 257.577,184.505 257.482 C 184.997 257.387,184.500 257.311,183.400 257.314 C 182.300 257.317,181.897 257.395,182.505 257.487 M186.905 257.887 C 187.514 257.979,188.414 257.977,188.905 257.882 C 189.397 257.787,188.900 257.711,187.800 257.714 C 186.700 257.717,186.297 257.795,186.905 257.887 M203.105 259.883 C 203.602 259.979,204.322 259.975,204.705 259.875 C 205.087 259.775,204.680 259.696,203.800 259.701 C 202.920 259.705,202.607 259.787,203.105 259.883 M305.656 260.400 C 305.656 260.730,305.811 261.360,306.000 261.800 C 306.217 262.304,306.344 262.378,306.344 262.000 C 306.344 261.670,306.189 261.040,306.000 260.600 C 305.783 260.096,305.656 260.022,305.656 260.400 M220.900 262.276 C 221.285 262.376,221.915 262.376,222.300 262.276 C 222.685 262.175,222.370 262.093,221.600 262.093 C 220.830 262.093,220.515 262.175,220.900 262.276 M341.905 264.683 C 342.402 264.779,343.122 264.775,343.505 264.675 C 343.887 264.575,343.480 264.496,342.600 264.501 C 341.720 264.505,341.407 264.587,341.905 264.683 M345.300 265.076 C 345.685 265.176,346.315 265.176,346.700 265.076 C 347.085 264.975,346.770 264.893,346.000 264.893 C 345.230 264.893,344.915 264.975,345.300 265.076 M237.600 266.805 C 237.930 267.016,238.725 267.191,239.367 267.194 C 240.914 267.202,240.577 266.971,238.600 266.668 C 237.510 266.501,237.191 266.545,237.600 266.805 M364.900 267.076 C 365.285 267.176,365.915 267.176,366.300 267.076 C 366.685 266.975,366.370 266.893,365.600 266.893 C 364.830 266.893,364.515 266.975,364.900 267.076 M367.905 267.483 C 368.402 267.579,369.122 267.575,369.505 267.475 C 369.887 267.375,369.480 267.296,368.600 267.301 C 367.720 267.305,367.407 267.387,367.905 267.483 M87.200 270.200 C 87.946 270.970,88.647 271.600,88.757 271.600 C 88.867 271.600,88.346 270.970,87.600 270.200 C 86.854 269.430,86.153 268.800,86.043 268.800 C 85.933 268.800,86.454 269.430,87.200 270.200 M101.500 269.482 C 101.995 269.578,102.805 269.578,103.300 269.482 C 103.795 269.387,103.390 269.309,102.400 269.309 C 101.410 269.309,101.005 269.387,101.500 269.482 M290.901 271.800 C 290.905 272.680,290.987 272.993,291.083 272.495 C 291.179 271.998,291.175 271.278,291.075 270.895 C 290.975 270.513,290.896 270.920,290.901 271.800 M312.691 271.089 C 313.401 271.177,314.661 271.179,315.491 271.092 C 316.321 271.005,315.740 270.933,314.200 270.931 C 312.660 270.929,311.981 271.000,312.691 271.089 M322.500 271.499 C 325.085 271.568,329.315 271.568,331.900 271.499 C 334.485 271.429,332.370 271.372,327.200 271.372 C 322.030 271.372,319.915 271.429,322.500 271.499 M338.500 271.876 C 338.885 271.976,339.515 271.976,339.900 271.876 C 340.285 271.775,339.970 271.693,339.200 271.693 C 338.430 271.693,338.115 271.775,338.500 271.876 M357.100 273.482 C 357.595 273.578,358.405 273.578,358.900 273.482 C 359.395 273.387,358.990 273.309,358.000 273.309 C 357.010 273.309,356.605 273.387,357.100 273.482 M360.500 273.876 C 360.885 273.976,361.515 273.976,361.900 273.876 C 362.285 273.775,361.970 273.693,361.200 273.693 C 360.430 273.693,360.115 273.775,360.500 273.876 " stroke="none" fill="#f09e98" fill-rule="evenodd"></path><path id="path4" d="M222.140 108.800 C 222.140 110.670,222.209 111.435,222.293 110.500 C 222.377 109.565,222.377 108.035,222.293 107.100 C 222.209 106.165,222.140 106.930,222.140 108.800 M221.693 124.800 C 221.693 125.570,221.775 125.885,221.876 125.500 C 221.976 125.115,221.976 124.485,221.876 124.100 C 221.775 123.715,221.693 124.030,221.693 124.800 M316.928 126.000 C 316.928 127.430,317.001 128.015,317.089 127.300 C 317.178 126.585,317.178 125.415,317.089 124.700 C 317.001 123.985,316.928 124.570,316.928 126.000 M309.348 129.200 C 309.348 131.510,309.414 132.455,309.495 131.300 C 309.576 130.145,309.576 128.255,309.495 127.100 C 309.414 125.945,309.348 126.890,309.348 129.200 M228.951 131.200 C 228.951 133.730,229.016 134.765,229.096 133.500 C 229.175 132.235,229.175 130.165,229.096 128.900 C 229.016 127.635,228.951 128.670,228.951 131.200 M221.363 134.800 C 221.363 138.430,221.423 139.915,221.498 138.100 C 221.572 136.285,221.572 133.315,221.498 131.500 C 221.423 129.685,221.363 131.170,221.363 134.800 M316.893 138.400 C 316.893 139.170,316.975 139.485,317.076 139.100 C 317.176 138.715,317.176 138.085,317.076 137.700 C 316.975 137.315,316.893 137.630,316.893 138.400 M228.920 140.000 C 228.920 141.210,228.995 141.705,229.087 141.100 C 229.178 140.495,229.178 139.505,229.087 138.900 C 228.995 138.295,228.920 138.790,228.920 140.000 M309.693 139.200 C 309.693 139.970,309.775 140.285,309.876 139.900 C 309.976 139.515,309.976 138.885,309.876 138.500 C 309.775 138.115,309.693 138.430,309.693 139.200 M310.093 143.200 C 310.093 143.970,310.175 144.285,310.276 143.900 C 310.376 143.515,310.376 142.885,310.276 142.500 C 310.175 142.115,310.093 142.430,310.093 143.200 M221.701 145.800 C 221.705 146.680,221.787 146.993,221.883 146.495 C 221.979 145.998,221.975 145.278,221.875 144.895 C 221.775 144.513,221.696 144.920,221.701 145.800 M311.600 146.125 C 311.600 146.194,312.185 146.779,312.900 147.425 L 314.200 148.600 313.025 147.300 C 311.930 146.088,311.600 145.816,311.600 146.125 M77.300 147.076 C 77.685 147.176,78.315 147.176,78.700 147.076 C 79.085 146.975,78.770 146.893,78.000 146.893 C 77.230 146.893,76.915 146.975,77.300 147.076 M325.200 150.925 C 325.200 150.994,325.785 151.579,326.500 152.225 L 327.800 153.400 326.625 152.100 C 325.530 150.888,325.200 150.616,325.200 150.925 M61.105 155.483 C 61.602 155.579,62.322 155.575,62.705 155.475 C 63.087 155.375,62.680 155.296,61.800 155.301 C 60.920 155.305,60.607 155.387,61.105 155.483 M67.300 155.891 C 68.125 155.978,69.475 155.978,70.300 155.891 C 71.125 155.805,70.450 155.734,68.800 155.734 C 67.150 155.734,66.475 155.805,67.300 155.891 M221.701 160.200 C 221.705 161.080,221.787 161.393,221.883 160.895 C 221.979 160.398,221.975 159.678,221.875 159.295 C 221.775 158.913,221.696 159.320,221.701 160.200 M183.505 162.683 C 184.002 162.779,184.722 162.775,185.105 162.675 C 185.487 162.575,185.080 162.496,184.200 162.501 C 183.320 162.505,183.007 162.587,183.505 162.683 M189.500 162.689 C 190.215 162.778,191.385 162.778,192.100 162.689 C 192.815 162.601,192.230 162.528,190.800 162.528 C 189.370 162.528,188.785 162.601,189.500 162.689 M203.911 162.693 C 204.851 162.778,206.291 162.777,207.111 162.691 C 207.930 162.605,207.160 162.536,205.400 162.537 C 203.640 162.539,202.970 162.609,203.911 162.693 M53.505 165.483 C 54.002 165.579,54.722 165.575,55.105 165.475 C 55.487 165.375,55.080 165.296,54.200 165.301 C 53.320 165.305,53.007 165.387,53.505 165.483 M90.900 165.876 C 91.285 165.976,91.915 165.976,92.300 165.876 C 92.685 165.775,92.370 165.693,91.600 165.693 C 90.830 165.693,90.515 165.775,90.900 165.876 M103.700 167.076 C 104.085 167.176,104.715 167.176,105.100 167.076 C 105.485 166.975,105.170 166.893,104.400 166.893 C 103.630 166.893,103.315 166.975,103.700 167.076 M338.800 166.925 C 338.800 166.994,339.385 167.579,340.100 168.225 L 341.400 169.400 340.225 168.100 C 339.130 166.888,338.800 166.616,338.800 166.925 M120.500 169.076 C 120.885 169.176,121.515 169.176,121.900 169.076 C 122.285 168.975,121.970 168.893,121.200 168.893 C 120.430 168.893,120.115 168.975,120.500 169.076 M182.291 169.489 C 183.001 169.577,184.261 169.579,185.091 169.492 C 185.921 169.405,185.340 169.333,183.800 169.331 C 182.260 169.329,181.581 169.400,182.291 169.489 M193.700 169.491 C 194.525 169.578,195.875 169.578,196.700 169.491 C 197.525 169.405,196.850 169.334,195.200 169.334 C 193.550 169.334,192.875 169.405,193.700 169.491 M205.300 169.487 C 205.905 169.578,206.895 169.578,207.500 169.487 C 208.105 169.395,207.610 169.320,206.400 169.320 C 205.190 169.320,204.695 169.395,205.300 169.487 M149.905 171.483 C 150.402 171.579,151.122 171.575,151.505 171.475 C 151.887 171.375,151.480 171.296,150.600 171.301 C 149.720 171.305,149.407 171.387,149.905 171.483 M81.300 173.098 C 83.225 173.171,86.375 173.171,88.300 173.098 C 90.225 173.025,88.650 172.965,84.800 172.965 C 80.950 172.965,79.375 173.025,81.300 173.098 M346.400 175.000 C 347.146 175.770,347.847 176.400,347.957 176.400 C 348.067 176.400,347.546 175.770,346.800 175.000 C 346.054 174.230,345.353 173.600,345.243 173.600 C 345.133 173.600,345.654 174.230,346.400 175.000 M28.093 175.200 C 28.093 175.970,28.175 176.285,28.276 175.900 C 28.376 175.515,28.376 174.885,28.276 174.500 C 28.175 174.115,28.093 174.430,28.093 175.200 M121.505 176.283 C 122.002 176.379,122.722 176.375,123.105 176.275 C 123.487 176.175,123.080 176.096,122.200 176.101 C 121.320 176.105,121.007 176.187,121.505 176.283 M125.300 176.676 C 125.685 176.776,126.315 176.776,126.700 176.676 C 127.085 176.575,126.770 176.493,126.000 176.493 C 125.230 176.493,124.915 176.575,125.300 176.676 M131.300 177.076 C 131.685 177.176,132.315 177.176,132.700 177.076 C 133.085 176.975,132.770 176.893,132.000 176.893 C 131.230 176.893,130.915 176.975,131.300 177.076 M28.514 179.800 C 28.517 180.900,28.595 181.303,28.687 180.695 C 28.779 180.086,28.777 179.186,28.682 178.695 C 28.587 178.203,28.511 178.700,28.514 179.800 M152.900 178.676 C 153.285 178.776,153.915 178.776,154.300 178.676 C 154.685 178.575,154.370 178.493,153.600 178.493 C 152.830 178.493,152.515 178.575,152.900 178.676 M346.200 185.600 C 347.950 187.360,349.471 188.800,349.581 188.800 C 349.691 188.800,348.350 187.360,346.600 185.600 C 344.850 183.840,343.329 182.400,343.219 182.400 C 343.109 182.400,344.450 183.840,346.200 185.600 M356.383 195.700 C 357.364 196.745,358.219 197.600,358.283 197.600 C 358.584 197.600,358.266 197.241,356.500 195.583 L 354.600 193.800 356.383 195.700 M95.091 205.489 C 95.801 205.577,97.061 205.579,97.891 205.492 C 98.721 205.405,98.140 205.333,96.600 205.331 C 95.060 205.329,94.381 205.400,95.091 205.489 M119.000 213.200 C 119.859 214.080,120.652 214.800,120.762 214.800 C 120.872 214.800,120.259 214.080,119.400 213.200 C 118.541 212.320,117.748 211.600,117.638 211.600 C 117.528 211.600,118.141 212.320,119.000 213.200 M99.300 212.676 C 99.685 212.776,100.315 212.776,100.700 212.676 C 101.085 212.575,100.770 212.493,100.000 212.493 C 99.230 212.493,98.915 212.575,99.300 212.676 M80.575 220.500 L 79.400 221.800 80.700 220.625 C 81.912 219.530,82.184 219.200,81.875 219.200 C 81.806 219.200,81.221 219.785,80.575 220.500 M44.548 232.000 C 44.548 234.310,44.614 235.255,44.695 234.100 C 44.776 232.945,44.776 231.055,44.695 229.900 C 44.614 228.745,44.548 229.690,44.548 232.000 M37.342 231.800 C 37.341 233.780,37.408 234.640,37.492 233.712 C 37.576 232.784,37.577 231.164,37.495 230.112 C 37.412 229.060,37.343 229.820,37.342 231.800 M246.981 238.100 L 245.400 239.800 247.100 238.219 C 248.681 236.748,248.984 236.400,248.681 236.400 C 248.616 236.400,247.851 237.165,246.981 238.100 M59.300 237.491 C 60.125 237.578,61.475 237.578,62.300 237.491 C 63.125 237.405,62.450 237.334,60.800 237.334 C 59.150 237.334,58.475 237.405,59.300 237.491 M382.542 243.800 C 382.541 245.780,382.608 246.640,382.692 245.712 C 382.776 244.784,382.777 243.164,382.695 242.112 C 382.612 241.060,382.543 241.820,382.542 243.800 M389.734 243.600 C 389.734 245.250,389.805 245.925,389.891 245.100 C 389.978 244.275,389.978 242.925,389.891 242.100 C 389.805 241.275,389.734 241.950,389.734 243.600 M142.500 248.676 C 142.885 248.776,143.515 248.776,143.900 248.676 C 144.285 248.575,143.970 248.493,143.200 248.493 C 142.430 248.493,142.115 248.575,142.500 248.676 M148.105 249.087 C 148.714 249.179,149.614 249.177,150.105 249.082 C 150.597 248.987,150.100 248.911,149.000 248.914 C 147.900 248.917,147.497 248.995,148.105 249.087 M162.500 249.487 C 163.105 249.578,164.095 249.578,164.700 249.487 C 165.305 249.395,164.810 249.320,163.600 249.320 C 162.390 249.320,161.895 249.395,162.500 249.487 M174.500 249.876 C 174.885 249.976,175.515 249.976,175.900 249.876 C 176.285 249.775,175.970 249.693,175.200 249.693 C 174.430 249.693,174.115 249.775,174.500 249.876 M188.305 251.083 C 188.802 251.179,189.522 251.175,189.905 251.075 C 190.287 250.975,189.880 250.896,189.000 250.901 C 188.120 250.905,187.807 250.987,188.305 251.083 M139.900 255.482 C 140.395 255.578,141.205 255.578,141.700 255.482 C 142.195 255.387,141.790 255.309,140.800 255.309 C 139.810 255.309,139.405 255.387,139.900 255.482 M149.500 255.895 C 150.655 255.976,152.545 255.976,153.700 255.895 C 154.855 255.814,153.910 255.748,151.600 255.748 C 149.290 255.748,148.345 255.814,149.500 255.895 M159.700 256.294 C 160.745 256.376,162.455 256.376,163.500 256.294 C 164.545 256.212,163.690 256.144,161.600 256.144 C 159.510 256.144,158.655 256.212,159.700 256.294 M192.100 258.276 C 192.485 258.376,193.115 258.376,193.500 258.276 C 193.885 258.175,193.570 258.093,192.800 258.093 C 192.030 258.093,191.715 258.175,192.100 258.276 M319.900 264.289 C 320.615 264.378,321.785 264.378,322.500 264.289 C 323.215 264.201,322.630 264.128,321.200 264.128 C 319.770 264.128,319.185 264.201,319.900 264.289 M337.907 264.690 C 338.626 264.779,339.706 264.777,340.307 264.686 C 340.908 264.595,340.320 264.522,339.000 264.524 C 337.680 264.526,337.188 264.601,337.907 264.690 M109.178 266.700 L 107.800 268.200 109.300 266.822 C 110.696 265.538,110.984 265.200,110.678 265.200 C 110.612 265.200,109.937 265.875,109.178 266.700 M357.300 266.676 C 357.685 266.776,358.315 266.776,358.700 266.676 C 359.085 266.575,358.770 266.493,358.000 266.493 C 357.230 266.493,356.915 266.575,357.300 266.676 M361.300 267.087 C 361.905 267.178,362.895 267.178,363.500 267.087 C 364.105 266.995,363.610 266.920,362.400 266.920 C 361.190 266.920,360.695 266.995,361.300 267.087 M251.714 270.600 C 251.717 271.700,251.795 272.103,251.887 271.495 C 251.979 270.886,251.977 269.986,251.882 269.495 C 251.787 269.003,251.711 269.500,251.714 270.600 M297.693 270.400 C 297.693 271.170,297.775 271.485,297.876 271.100 C 297.976 270.715,297.976 270.085,297.876 269.700 C 297.775 269.315,297.693 269.630,297.693 270.400 M336.900 271.476 C 337.285 271.576,337.915 271.576,338.300 271.476 C 338.685 271.375,338.370 271.293,337.600 271.293 C 336.830 271.293,336.515 271.375,336.900 271.476 M341.100 271.882 C 341.595 271.978,342.405 271.978,342.900 271.882 C 343.395 271.787,342.990 271.709,342.000 271.709 C 341.010 271.709,340.605 271.787,341.100 271.882 M274.305 290.283 C 274.802 290.379,275.522 290.375,275.905 290.275 C 276.287 290.175,275.880 290.096,275.000 290.101 C 274.120 290.105,273.807 290.187,274.305 290.283 M274.305 297.083 C 274.802 297.179,275.522 297.175,275.905 297.075 C 276.287 296.975,275.880 296.896,275.000 296.901 C 274.120 296.905,273.807 296.987,274.305 297.083 " stroke="none" fill="#df7c71" fill-rule="evenodd"></path></g></svg>